<svg width="1920" height="328" viewBox="0 0 1920 328" fill="none" xmlns="http://www.w3.org/2000/svg">
    <path fill-rule="evenodd" clip-rule="evenodd" d="M0 7.21512C15.1244 10.0793 38.0558 16.8864 47.7835 32.5836C47.7835 32.5836 120.851 -23.0485 225.416 11.1134C225.416 11.1134 293.442 35.5147 282.111 94.0705C282.111 94.0705 358.962 95.0451 375.334 129.207C391.707 163.369 380.376 188.745 380.376 188.745C380.376 188.745 433.287 157.514 492.498 185.821C551.709 214.121 532.81 241.245 532.81 241.245C532.81 241.245 558.008 233.158 586.98 233.158C586.98 233.158 593.279 218.034 632.334 217.052C632.334 217.052 629.568 165.549 704.777 147.753C779.977 129.966 804.934 168.74 804.934 168.74C804.934 168.74 842.097 128.24 932.805 137.509C932.805 137.509 955.852 97.8051 1013.3 93.5051C1013.3 93.5051 1010.37 37.7912 1084.61 23.8125C1158.84 9.8338 1187.95 45.6695 1187.95 45.6695C1187.95 45.6695 1227.96 3.69627 1309.97 14.2454C1392 24.7945 1397.03 48.2138 1397.03 48.2138C1397.03 48.2138 1446.16 -2.04697 1521.75 38.4533C1521.75 38.4533 1551.9 54.6713 1559.5 93.8994C1559.5 93.8994 1621.43 104.828 1637.24 139.853C1637.24 139.853 1701.99 129.981 1738.8 150.588L1771.83 169.239C1771.83 169.239 1778.76 120.436 1873.88 136.051C1887.73 138.328 1903.39 143.558 1920.01 150.811V327.728H0V7.21512Z" fill="white"/>
</svg>