<svg width="1920" height="317" viewBox="0 0 1920 317" fill="none" xmlns="http://www.w3.org/2000/svg">
<path fill-rule="evenodd" clip-rule="evenodd" d="M0 6.96599C15.1244 9.73666 38.0558 16.3215 47.7835 31.5062C47.7835 31.5062 120.851 -22.3095 225.416 10.737C225.416 10.737 293.442 34.3416 282.111 90.9855C282.111 90.9855 358.962 91.9283 375.334 124.975C391.707 158.021 380.376 182.569 380.376 182.569C380.376 182.569 433.287 152.358 492.498 179.74C551.709 207.116 532.81 233.354 532.81 233.354C532.81 233.354 558.008 225.532 586.98 225.532C586.98 225.532 593.279 210.901 632.334 209.951C632.334 209.951 629.568 160.13 704.777 142.916C779.977 125.709 804.934 163.217 804.934 163.217C804.934 163.217 842.097 124.039 932.805 133.006C932.805 133.006 955.852 94.5982 1013.3 90.4386C1013.3 90.4386 1010.37 36.5437 1084.61 23.0215C1158.84 9.49917 1187.95 44.1649 1187.95 44.1649C1187.95 44.1649 1227.96 3.56203 1309.97 13.7667C1392 23.9714 1397.03 46.6261 1397.03 46.6261C1397.03 46.6261 1446.16 -1.99369 1521.75 37.1842C1521.75 37.1842 1551.9 52.8727 1559.5 90.82C1559.5 90.82 1621.43 101.392 1637.24 135.273C1637.24 135.273 1701.99 125.723 1738.8 145.658L1771.83 163.699C1771.83 163.699 1778.76 116.49 1873.88 131.596C1887.73 133.798 1903.39 138.857 1920.01 145.873V317.014H0V6.96599Z" fill="#D1D6FF"/>
</svg>
