<svg width="64" height="64" viewBox="0 0 64 64" fill="none" xmlns="http://www.w3.org/2000/svg">
<g clip-path="url(#clip0_5953_1597)">
<path d="M55.1804 4.0245L51.1025 6.15462C45.648 2.16537 39.0685 0 32.2324 0C23.6849 0 15.649 3.32863 9.60492 9.3725C3.56092 15.4166 0.232422 23.4525 0.232422 32C0.232422 40.5475 3.56105 48.5834 9.60492 54.6275C15.649 60.6714 23.6849 64 32.2324 64C34.4044 64 36.1652 62.2393 36.1652 60.0672C36.1652 57.8952 34.4044 56.1345 32.2324 56.1345C18.9247 56.1345 8.09792 45.3078 8.09792 32C8.09792 18.6922 18.9247 7.8655 32.2324 7.8655C36.0085 7.8655 39.6807 8.74125 42.9915 10.3915L40.2637 11.8164C37.3988 13.3129 37.2284 17.3494 39.9569 19.082L54.1618 28.1022C56.8899 29.8346 60.4705 27.9644 60.6072 24.7355L61.3189 7.92338C61.4558 4.69425 58.0453 2.528 55.1804 4.0245Z" fill="#B3E59F"/>
<path d="M52.8433 7.34025L59.1285 4.05713C57.9704 3.42575 56.5162 3.32675 55.1804 4.0245L51.1025 6.15462C51.6956 6.53064 52.2762 6.92606 52.8433 7.34025ZM13.6155 54.6275C7.57155 48.5834 4.24305 40.5475 4.24305 32C4.24305 23.4525 7.57167 15.4166 13.6155 9.3725C19.1858 3.80238 26.4483 0.541 34.2435 0.063375C33.574 0.0214351 32.9033 0.000299925 32.2324 0C23.6849 0 15.649 3.32863 9.60492 9.3725C3.56092 15.4166 0.232422 23.4525 0.232422 32C0.232422 40.5475 3.56105 48.5834 9.60492 54.6275C15.649 60.6714 23.6849 64 32.2324 64C32.5897 64 32.9353 63.9515 33.2643 63.8623C25.8413 63.1815 18.9519 59.9637 13.6155 54.6275ZM58.1724 28.1024L43.9675 19.0821C41.239 17.3495 41.4094 13.313 44.2743 11.8165L45.0025 11.4361C45.826 11.006 45.7658 9.799 44.8985 9.466C42.164 8.41587 39.2362 7.86562 36.243 7.86562C35.5677 7.86562 34.899 7.895 34.2375 7.94963C37.3043 8.20325 40.27 9.03513 42.9917 10.3916L40.2638 11.8165C37.3989 13.313 37.2285 17.3495 39.957 19.0821L54.1619 28.1024C55.548 28.9826 57.1535 28.9314 58.4163 28.2459C58.3335 28.2007 58.2521 28.1528 58.1724 28.1024Z" fill="#95D6A4"/>
<path d="M39.9291 45.3273H39.9119C38.8259 45.3179 37.953 44.4301 37.9625 43.3441C37.9711 42.3382 37.98 41.2227 37.9885 40.0597H31.043C30.7011 40.0596 30.3651 39.9705 30.0682 39.8009C29.7713 39.6314 29.5237 39.3874 29.3499 39.093C29.1761 38.7986 29.082 38.4639 29.077 38.1221C29.072 37.7802 29.1562 37.4429 29.3214 37.1435C30.7335 34.5839 35.4197 26.1357 36.4322 24.8934C37.3544 23.7619 38.6079 23.3047 39.7857 23.6689C40.9731 24.0367 41.8161 25.1819 41.9332 26.5868C41.9864 27.2238 41.9732 31.8343 41.9481 36.1269H42.251C43.337 36.1269 44.2174 37.0073 44.2174 38.0933C44.2174 39.1793 43.337 40.0597 42.251 40.0597H41.9219C41.9107 41.5542 41.9006 42.7597 41.8952 43.3779C41.8857 44.4581 41.007 45.3273 39.9291 45.3273ZM34.3842 36.1269H38.0145C38.0284 33.7336 38.0377 31.4261 38.0379 29.7109C37.0674 31.3667 35.7422 33.6976 34.3842 36.1269ZM21.2617 45.9396C17.8374 45.9396 17.5814 45.8541 17.3142 45.7651C16.6646 45.5486 16.179 45.0567 15.9819 44.4156C15.6455 43.3219 16.1502 42.6609 17.2561 41.2129C18.1627 40.0259 19.8501 37.8163 22.6779 33.7761C23.4971 32.6054 24.0255 31.5621 24.2496 30.6727L24.3061 30.2307C24.2494 28.8466 23.1055 27.7379 21.7077 27.7379C20.4676 27.7379 19.3945 28.6187 19.1561 29.8322C18.9469 30.8978 17.913 31.5919 16.8476 31.3828C15.7819 31.1736 15.0877 30.1401 15.297 29.0743C15.8966 26.0212 18.5927 23.8052 21.7077 23.8052C25.3102 23.8052 28.2411 26.7361 28.2411 30.3386C28.2319 30.6273 28.154 31.1882 28.1021 31.4731C27.7774 32.8738 27.0364 34.4074 25.9001 36.0311C23.9889 38.7618 22.5881 40.6724 21.5924 42.0019C23.1972 41.9996 25.1591 41.9844 27.0066 41.9612C28.0881 41.9507 28.9839 42.8168 28.9976 43.9027C29.0112 44.9886 28.142 45.8799 27.0561 45.8937C24.4894 45.9261 22.6245 45.9396 21.2617 45.9396Z" fill="#E27A66"/>
<path d="M31.384 39.0931C31.2101 38.7987 31.1161 38.464 31.1111 38.1221C31.1061 37.7802 31.1904 37.443 31.3556 37.1436C32.7677 34.584 37.454 26.1357 38.4665 24.8935C38.9127 24.3459 39.437 23.9579 39.9924 23.7427C39.9245 23.7154 39.8555 23.6908 39.7856 23.669C38.6079 23.3046 37.3542 23.762 36.4321 24.8935C35.4196 26.1357 30.7335 34.5839 29.3212 37.1436C29.1561 37.443 29.0719 37.7802 29.077 38.1221C29.082 38.4639 29.176 38.7986 29.3498 39.093C29.5237 39.3874 29.7712 39.6314 30.0681 39.8009C30.365 39.9705 30.701 40.0597 31.0429 40.0597H33.0772C32.7353 40.0597 32.3993 39.9705 32.1024 39.801C31.8055 39.6315 31.5579 39.3875 31.384 39.0931ZM39.9969 43.3441C40.0055 42.3382 40.0144 41.2227 40.0229 40.0597H37.9885C37.98 41.2227 37.9711 42.3382 37.9625 43.3441C37.953 44.4301 38.8259 45.318 39.9119 45.3274H39.9291C40.3014 45.3274 40.6486 45.2219 40.9457 45.0416C40.3726 44.6937 39.9906 44.0632 39.9969 43.3441ZM18.2432 31.1337C17.5574 30.7182 17.1679 29.9071 17.3314 29.0744C17.8649 26.3579 20.0585 24.3056 22.7296 23.8857C22.3916 23.8323 22.0499 23.8054 21.7077 23.8052C18.5927 23.8052 15.8967 26.0212 15.297 29.0744C15.0877 30.14 15.7819 31.1735 16.8476 31.3829C17.3475 31.4811 17.8392 31.3785 18.2432 31.1337ZM19.3487 45.7652C18.6991 45.5487 18.2135 45.0569 18.0164 44.4157C17.68 43.3221 18.1847 42.6611 19.2906 41.2131C20.1972 40.0261 21.8846 37.8165 24.7124 33.7762C25.5316 32.6056 26.06 31.5622 26.2841 30.6729L26.3406 30.2309C26.2839 28.8467 25.14 27.7381 23.7422 27.7381C23.384 27.7381 23.0406 27.8136 22.7264 27.9474C23.624 28.3311 24.2641 29.2046 24.3062 30.2307L24.2497 30.6727C24.0257 31.5621 23.4974 32.6055 22.678 33.7761C19.8502 37.8164 18.1629 40.0259 17.2562 41.213C16.1502 42.6611 15.6455 43.322 15.982 44.4156C16.1791 45.0567 16.6649 45.5486 17.3144 45.7651C17.5815 45.8541 17.8375 45.9396 21.2619 45.9396C21.5964 45.9396 21.9616 45.9387 22.3597 45.937C19.8217 45.9225 19.589 45.8454 19.3487 45.7652Z" fill="#DD636E"/>
<path d="M54.1059 63.896C53.8456 63.896 53.5813 63.8433 53.3279 63.7319C52.349 63.3017 51.9044 62.1593 52.3346 61.1805L58.8654 46.3237H52.1645C51.0953 46.3237 50.2285 45.4569 50.2285 44.3877C50.2285 43.3184 51.0953 42.4517 52.1645 42.4517H61.8313C62.1531 42.4517 62.4699 42.5319 62.753 42.6852C63.036 42.8385 63.2764 43.0599 63.4523 43.3294C63.6283 43.5989 63.7342 43.9081 63.7606 44.2289C63.787 44.5497 63.733 44.872 63.6035 45.1667L55.8791 62.7385C55.5604 63.4639 54.8504 63.8959 54.1059 63.896Z" fill="#90D8F9"/>
<path d="M53.9663 46.3237H52.1645C51.0946 46.3237 50.2285 45.4577 50.2285 44.3877C50.2285 43.319 51.0945 42.4517 52.1645 42.4517H53.9663C52.8976 42.4517 52.0303 43.319 52.0303 44.3877C52.0303 45.4577 52.8975 46.3237 53.9663 46.3237ZM55.0078 63.6725C54.7297 63.8195 54.4201 63.8966 54.1056 63.8972C53.8449 63.8972 53.5804 63.8443 53.3274 63.7319C52.3491 63.3022 51.9038 62.1599 52.3336 61.1817L58.8644 46.3237H60.6674L54.1366 61.1817C53.7249 62.1187 54.1146 63.2054 55.0078 63.6725Z" fill="#80B4FB"/>
<path d="M40.8654 56.1492C40.7016 56.1491 40.5405 56.1073 40.3973 56.0277C40.254 55.9482 40.1334 55.8335 40.0467 55.6945C39.96 55.5555 39.9101 55.3967 39.9017 55.2331C39.8932 55.0695 39.9266 54.9064 39.9986 54.7592L51.1577 31.9261C51.2134 31.8121 51.2909 31.7102 51.386 31.6262C51.481 31.5423 51.5917 31.4778 51.7117 31.4366C51.8316 31.3954 51.9585 31.3783 52.0851 31.3861C52.2117 31.394 52.3355 31.4267 52.4494 31.4824C52.5634 31.5381 52.6653 31.6157 52.7492 31.7108C52.8332 31.8058 52.8976 31.9165 52.9388 32.0364C52.98 32.1564 52.9972 32.2833 52.9893 32.4099C52.9815 32.5365 52.9488 32.6603 52.8931 32.7742L41.7339 55.6073C41.6545 55.7699 41.5309 55.9069 41.3773 56.0027C41.2238 56.0985 41.0464 56.1493 40.8654 56.1492Z" fill="#868086"/>
</g>
<defs>
<clipPath id="clip0_5953_1597">
<rect width="64" height="64" fill="white"/>
</clipPath>
</defs>
</svg>
