<svg width="64" height="64" viewBox="0 0 64 64" fill="none" xmlns="http://www.w3.org/2000/svg">
<g clip-path="url(#clip0_5953_1583)">
<path fill-rule="evenodd" clip-rule="evenodd" d="M49.787 22.0349V54.642L40.6106 63.8184H0V31.2113L9.17638 22.0349H49.787Z" fill="#FABA7B"/>
<path fill-rule="evenodd" clip-rule="evenodd" d="M40.6113 63.8184L49.7877 54.642V22.0349H41.7843L40.6113 23.2079V63.8184Z" fill="#F5AD65"/>
<path fill-rule="evenodd" clip-rule="evenodd" d="M49.787 22.0349L40.6106 31.2113H0L9.17638 22.0349H49.787Z" fill="#E6A059"/>
<path fill-rule="evenodd" clip-rule="evenodd" d="M24.603 31.2113V42.0232H16.0059V31.2113L25.1822 22.0349H33.7794L24.603 31.2113Z" fill="#FB4455"/>
<path fill-rule="evenodd" clip-rule="evenodd" d="M35.4555 12.6435C63.462 11.8639 61.9536 33.5973 53.4403 45.3236C70.1646 31.2874 69.0099 3.70402 35.4555 4.49077V0.181396L30.1187 4.39252L24.7812 8.60365L30.1187 12.8148L35.4555 17.0259V12.6435Z" fill="#69A7FF"/>
<path d="M4.09141 55.4362C3.85271 55.4362 3.62379 55.3414 3.45501 55.1726C3.28623 55.0038 3.19141 54.7749 3.19141 54.5362C3.19141 54.2975 3.28623 54.0686 3.45501 53.8998C3.62379 53.7311 3.85271 53.6362 4.09141 53.6362H13.3515C13.5902 53.6362 13.8191 53.7311 13.9879 53.8998C14.1567 54.0686 14.2515 54.2975 14.2515 54.5362C14.2515 54.7749 14.1567 55.0038 13.9879 55.1726C13.8191 55.3414 13.5902 55.4362 13.3515 55.4362H4.09141ZM4.09141 59.8076C3.97322 59.8076 3.85618 59.7843 3.74699 59.7391C3.6378 59.6939 3.53858 59.6276 3.45501 59.544C3.37144 59.4604 3.30514 59.3612 3.25991 59.252C3.21469 59.1428 3.19141 59.0258 3.19141 58.9076C3.19141 58.7894 3.21469 58.6724 3.25991 58.5632C3.30514 58.454 3.37144 58.3548 3.45501 58.2712C3.53858 58.1876 3.6378 58.1213 3.74699 58.0761C3.85618 58.0309 3.97322 58.0076 4.09141 58.0076H13.3515C13.5902 58.0076 13.8191 58.1024 13.9879 58.2712C14.1567 58.44 14.2515 58.6689 14.2515 58.9076C14.2515 59.1463 14.1567 59.3752 13.9879 59.544C13.8191 59.7128 13.5902 59.8076 13.3515 59.8076H4.09141Z" fill="#F5AD65"/>
<path d="M16.0059 31.2112H24.603V42.0232H16.0059V31.2112Z" fill="#E82E41"/>
<path d="M0 31.2112H2.204V63.8184H0V31.2112Z" fill="#F5AD65"/>
<path fill-rule="evenodd" clip-rule="evenodd" d="M2.204 31.2113L11.384 22.0349H9.17638L0 31.2113H2.204Z" fill="#D99450"/>
<path fill-rule="evenodd" clip-rule="evenodd" d="M30.1201 6.5454L35.4568 2.33427V0.181396L30.1201 4.39252L24.7832 8.60365L26.1457 9.6819L30.1201 6.5454ZM35.4568 4.49077V6.64377C54.8587 6.1884 63.4267 15.2188 63.9732 25.634C64.5482 14.3448 56.1847 4.00265 35.4568 4.49077Z" fill="#5F96E6"/>
</g>
<defs>
<clipPath id="clip0_5953_1583">
<rect width="64" height="64" fill="white"/>
</clipPath>
</defs>
</svg>
