<svg width="64" height="64" viewBox="0 0 64 64" fill="none" xmlns="http://www.w3.org/2000/svg">
<g clip-path="url(#clip0_276_6277)">
<path d="M12.4473 4.43433L17.756 2.50285L20.9752 11.3508L15.6664 13.2823L12.4473 4.43433Z" fill="#358CD9"/>
<path d="M35.9333 35.9507L22.1931 40.9525L20.0142 41.745L16.1138 31.0289L11.5308 18.4388C11.1907 17.5037 11.2357 16.4724 11.6558 15.571L14.3748 9.74041L17.6152 9.30412L19.6816 7.80896L20.7605 8.31151L20.9955 8.42152L25.5122 10.528C26.4136 10.948 27.1112 11.7094 27.4512 12.6445L35.9333 35.9507Z" fill="#93BCE8"/>
<path d="M23.619 40.4334L20.0142 41.745L16.1138 31.0289L11.5308 18.4388C11.1907 17.5037 11.2357 16.4724 11.6558 15.571L14.3748 9.74041L19.6816 7.80896L20.7605 8.31151L20.9955 8.42152C17.5408 12.5913 14.9776 23.8787 23.619 40.4334Z" fill="#68A2DF"/>
<path d="M18.3983 4.2691L13.0844 6.20318C12.5978 6.38032 12.0597 6.12942 11.8826 5.64274L11.5569 4.7479C11.2028 3.77467 11.7045 2.69868 12.6777 2.3444L16.2296 1.05163C17.2028 0.697472 18.2788 1.19915 18.6331 2.17238L18.9587 3.06722C19.1357 3.55402 18.8848 4.09195 18.3983 4.2691Z" fill="#2A4F95"/>
<path d="M44.2494 15.0573L34.8372 16.89L31.7832 16.2949L25.4238 15.0573L27.8077 13.4421L27.0377 11.8307L28.2478 9.40917L32.9009 8.33656L34.8372 7.89026L41.4255 9.40917L44.2494 15.0573Z" fill="#D5D9E0"/>
<path d="M32.9009 8.33655C32.3083 10.473 31.8208 13.1646 31.7832 16.2949L25.4238 15.0573L28.2479 9.40916L32.9009 8.33655Z" fill="#B8BDCA"/>
<path d="M44.2494 15.0573V35.7657H25.4238V15.0573L28.5265 15.8048L31.8219 15.0573H44.2494Z" fill="#EDEFF1"/>
<path d="M37.3638 35.7657H25.4238V15.0573H31.822C31.5383 20.6478 32.646 27.8011 37.3638 35.7657Z" fill="#D5D9E0"/>
<path d="M41.4257 7.51266V9.40911H32.6248L30.5695 8.70279L28.248 9.40911V7.51266C28.248 5.4412 29.927 3.76227 31.9984 3.76227H37.6753C39.7466 3.76227 41.4257 5.4412 41.4257 7.51266Z" fill="#93BCE8"/>
<path d="M34.6125 3.76227C34.0849 4.82863 33.2511 6.76883 32.6248 9.40911H28.248V7.51266C28.248 5.4412 29.927 3.76227 31.9984 3.76227H34.6125Z" fill="#68A2DF"/>
<path d="M60.9278 26.5272C57.4836 35.9895 50.9304 42.5339 45.4111 42.5064C44.6623 42.5027 43.931 42.3776 43.2309 42.1226C37.369 39.9886 35.7888 29.5475 39.7005 18.8002C43.6109 8.05277 51.5343 1.07078 57.3961 3.20476C57.7574 3.33602 58.1012 3.49854 58.4287 3.69231C63.4316 6.62387 64.598 16.4412 60.9278 26.5272Z" fill="#D97C41"/>
<path d="M45.4111 42.5064C44.6623 42.5027 43.931 42.3776 43.2309 42.1226C37.369 39.9886 35.7888 29.5475 39.7005 18.8002C43.6109 8.05277 51.5343 1.07078 57.3961 3.20476C57.7574 3.33602 58.1012 3.49854 58.4287 3.69231C54.4621 7.47396 41.097 22.0067 45.4111 42.5064Z" fill="#AF602D"/>
<path d="M58.6003 13.6596C58.3215 14.4234 57.5989 14.8985 56.8301 14.8985C56.6163 14.8985 56.4001 14.8622 56.1875 14.7847L51.007 12.8983L50.8807 12.852C49.9031 12.497 49.3993 11.4169 49.7544 10.4393C50.0331 9.67543 50.7557 9.20038 51.5246 9.20038C51.7383 9.20038 51.9558 9.23663 52.1684 9.31414L53.1885 9.68543L57.4752 11.2456C58.4515 11.6019 58.9553 12.682 58.6003 13.6596Z" fill="#AF602D"/>
<path d="M58.678 21.7005C58.4005 22.4655 57.6791 22.9406 56.9103 22.9406C56.6953 22.9406 56.4778 22.9031 56.2652 22.8256L47.5418 19.6502L45.6516 18.9627C44.674 18.6076 44.1702 17.5275 44.5265 16.5499C44.804 15.7861 45.5266 15.311 46.2954 15.311C46.5092 15.311 46.7267 15.3473 46.9393 15.4248L49.122 16.2199L57.5529 19.2877C58.5304 19.644 59.0343 20.7241 58.678 21.7005Z" fill="#AF602D"/>
<path d="M62.1333 26.3522V48.9583C62.1333 51.0298 60.4544 52.7087 58.3829 52.7087H18.8188C16.7473 52.7087 15.0684 51.0298 15.0684 48.9583V26.3522C15.0684 25.5171 16.0785 25.0995 16.6685 25.6896L18.4587 27.7936C19.1675 28.6274 20.4377 28.6787 21.2128 27.9036L23.1555 25.9609C23.888 25.2283 25.0757 25.2283 25.8082 25.9609L27.8622 28.0148C28.5948 28.7474 29.7824 28.7474 30.515 28.0148L31.9126 26.6159L32.5677 25.9609C33.3003 25.2283 34.4879 25.2283 35.2205 25.9609L37.2745 28.0148C38.007 28.7474 39.1947 28.7474 39.9272 28.0148L41.9812 25.9609C42.7138 25.2283 43.9014 25.2283 44.634 25.9609L46.6867 28.0148C47.4193 28.7474 48.6069 28.7474 49.3395 28.0148L51.3934 25.9609C52.126 25.2283 53.3136 25.2283 54.0462 25.9609L55.9889 27.9036C56.764 28.6787 58.0341 28.6274 58.7442 27.7936L60.5332 25.6896C61.1232 25.0995 62.1333 25.5171 62.1333 26.3522Z" fill="#EEDB00"/>
<path d="M36.4819 52.7087H18.8188C16.7473 52.7087 15.0684 51.0298 15.0684 48.9583V26.3522C15.0684 25.5171 16.0785 25.0995 16.6685 25.6896L18.4587 27.7936C19.1675 28.6274 20.4377 28.6787 21.2128 27.9036L23.1555 25.9609C23.888 25.2283 25.0757 25.2283 25.8082 25.9609L27.8622 28.0148C28.5948 28.7474 29.7824 28.7474 30.515 28.0148L31.9126 26.6159C29.7988 31.5265 26.0408 43.8378 36.4819 52.7087Z" fill="#F3C23B"/>
<path d="M19.9547 33.1054H16.9519V41.4125H9.42109V33.1054H6.41827C4.7481 33.1054 3.91051 31.0852 5.09188 29.9038L11.8601 23.1356C12.3239 22.673 12.969 22.503 13.5665 22.6255C13.9128 22.6968 14.2441 22.8668 14.5129 23.1356L21.2811 29.9038C22.4625 31.0852 21.6261 33.1054 19.9547 33.1054Z" fill="#FB695B"/>
<path d="M9.42304 41.4125V33.1054H6.42023C4.75005 33.1054 3.91246 31.0852 5.09384 29.9038L11.8621 23.1356C12.3259 22.673 12.9709 22.503 13.5685 22.6255C12.4221 25.4183 9.20677 34.9231 15.4237 41.4125H9.42304Z" fill="#F54432"/>
<path d="M46.9393 15.4248L49.122 16.2199C48.5644 17.3062 48.0319 18.4501 47.5418 19.6502L45.6516 18.9627C44.674 18.6076 44.1702 17.5275 44.5265 16.5499C44.804 15.7861 45.5266 15.311 46.2954 15.311C46.5092 15.311 46.7266 15.3473 46.9393 15.4248Z" fill="#A05423"/>
<path d="M53.1885 9.68543C52.4659 10.663 51.7296 11.7356 51.007 12.8983L50.8807 12.852C49.9031 12.497 49.3993 11.4169 49.7544 10.4393C50.0331 9.67543 50.7557 9.20038 51.5246 9.20038C51.7383 9.20038 51.9558 9.23663 52.1684 9.31414L53.1885 9.68543Z" fill="#A05423"/>
<path d="M25.4238 50.826C25.4238 55.889 22.3497 60.2333 17.9655 62.0947C16.4978 62.7173 14.8826 63.0623 13.1875 63.0623C6.42925 63.0623 0.951172 57.5842 0.951172 50.826C0.951172 45.3817 4.50642 40.7675 9.42206 39.1798H9.42332L11.0822 39.3923L13.0687 38.591C13.1087 38.5897 13.1475 38.5897 13.1875 38.5897C19.9456 38.5897 25.4238 44.0678 25.4238 50.826Z" fill="#00CE8E"/>
<path d="M17.9655 62.0942C16.4978 62.7166 14.8826 63.0618 13.1875 63.0618C6.42925 63.0618 0.951172 57.5837 0.951172 50.8254C0.951172 44.1073 6.36549 38.653 13.0687 38.5905C11.0435 42.8434 7.47061 53.6295 17.9655 62.0942Z" fill="#00B762"/>
<path d="M28.8028 44.9395C30.7994 44.9395 32.418 43.6505 32.418 42.0605C32.418 40.4704 30.7994 39.1814 28.8028 39.1814C26.8061 39.1814 25.1875 40.4704 25.1875 42.0605C25.1875 43.6505 26.8061 44.9395 28.8028 44.9395Z" fill="white"/>
<path d="M48.3986 44.9395C50.3953 44.9395 52.014 43.6505 52.014 42.0605C52.014 40.4704 50.3953 39.1814 48.3986 39.1814C46.4019 39.1814 44.7832 40.4704 44.7832 42.0605C44.7832 43.6505 46.4019 44.9395 48.3986 44.9395Z" fill="white"/>
<path d="M62.9932 17.4047C62.4803 17.3455 62.0145 17.7164 61.9563 18.2311C61.7209 20.3135 61.2616 22.4462 60.5954 24.5762C60.2667 24.6877 59.9772 24.8964 59.8196 25.0822L58.0312 27.1856C57.6723 27.607 57.0369 27.625 56.6528 27.2405L54.7101 25.2978C53.6103 24.1983 51.8309 24.1981 50.7314 25.2978L48.6772 27.3519C48.3099 27.7192 47.7165 27.7178 47.3507 27.352L45.2978 25.2978C44.1981 24.1983 42.4185 24.1981 41.3192 25.2978L39.2649 27.3519C39.0918 27.525 38.8626 27.6215 38.6185 27.6259C39.0979 22.5811 40.9116 17.1884 43.6415 12.7306C47.698 6.1114 53.097 2.63678 57.0757 4.08594C60.0019 5.15005 61.8853 8.85806 62.1138 14.005C62.1369 14.5222 62.5731 14.9255 63.0921 14.9C63.6094 14.8769 64.0102 14.439 63.987 13.9217C63.7199 7.90296 61.4344 3.67577 57.7169 2.32375C55.2269 1.41728 52.3794 1.90746 49.4821 3.74128C47.1451 5.22068 44.9075 7.49067 42.9476 10.3557L42.3634 9.18773V7.51267C42.3634 4.92765 40.2604 2.82468 37.6754 2.82468H31.9985C29.4135 2.82468 27.3106 4.92765 27.3106 7.51267V9.18773L26.7941 10.2206C26.52 10.0083 26.2238 9.82479 25.9092 9.67828L20.4306 7.12338L19.5107 4.59512C19.9536 4.06731 20.066 3.36986 19.8393 2.74667L19.5136 1.85195C18.9819 0.391047 17.3699 -0.361032 15.9083 0.170774L12.3563 1.46341C10.8991 1.99384 10.145 3.61114 10.6753 5.06867L11.001 5.96351C11.2254 6.5797 11.754 7.04675 12.4411 7.16751L13.3615 9.69628L10.8064 15.175C10.2778 16.3094 10.2221 17.5824 10.6503 18.7596L11.8304 22.0006C11.6039 22.1251 11.3901 22.2811 11.1982 22.4725L4.43014 29.2408C2.65908 31.0117 3.91046 34.043 6.41935 34.043H8.48469V38.5202C3.53629 40.4179 0.0136719 45.2179 0.0136719 50.8257C0.0136719 58.09 5.92355 64 13.1879 64C19.4842 64 24.762 59.5598 26.057 53.6464H36.4139C36.9318 53.6464 37.3515 53.2267 37.3515 52.7088C37.3515 52.1909 36.9318 51.7712 36.4139 51.7712H26.3278C26.753 45.8113 23.1546 40.5385 17.8907 38.5201V34.043H19.9559C22.4652 34.043 23.7173 31.0128 21.9454 29.2408L21.5492 28.8447C21.7975 28.6627 21.6622 28.781 23.8193 26.6238C24.186 26.2572 24.7794 26.2572 25.1459 26.6239L27.1999 28.6779C28.2997 29.7774 30.0791 29.7776 31.1788 28.6777L33.2316 26.6238C33.5982 26.2572 34.1917 26.2572 34.5582 26.6239L36.6122 28.6779C37.7119 29.7774 39.4913 29.7776 40.5908 28.6779L42.645 26.6238C43.0123 26.2565 43.6058 26.2579 43.9716 26.6237L46.0244 28.6779C47.1241 29.7774 48.9036 29.7776 50.0031 28.6779L52.0573 26.6238C52.424 26.2572 53.0174 26.2572 53.3839 26.6239L55.3268 28.5666C56.4875 29.7271 58.3943 29.6513 59.4593 28.4009L61.1965 26.3575V48.9583C61.1965 50.5092 59.9346 51.7711 58.3837 51.7711H40.7894C40.2714 51.7711 39.8518 52.1908 39.8518 52.7087C39.8518 53.2266 40.2714 53.6463 40.7894 53.6463H58.3837C60.9687 53.6463 63.0717 51.5433 63.0717 48.9583V26.3522C63.0717 25.8049 62.8358 25.3004 62.4421 24.9514C63.113 22.769 63.5776 20.5821 63.8194 18.4415C63.8778 17.9271 63.5077 17.4628 62.9932 17.4047ZM31.9984 4.69988H37.6753C39.2262 4.69988 40.4881 5.96176 40.4881 7.51267V8.47152H29.1856V7.51267C29.1856 5.96176 30.4475 4.69988 31.9984 4.69988ZM14.9359 8.53866L14.2893 6.76234L17.8342 5.47208L18.4805 7.24865L14.9359 8.53866ZM12.9978 3.2256C16.8491 1.82395 16.6423 1.8757 16.8709 1.8757C17.2449 1.8757 17.6102 2.1051 17.7513 2.49314L18.0772 3.38786L12.763 5.32207L12.4374 4.42735C12.2607 3.94155 12.512 3.40237 12.9978 3.2256ZM24.4869 50.8257C24.4869 57.056 19.4182 62.1248 13.1879 62.1248C6.95765 62.1248 1.88899 57.056 1.88899 50.8257C1.88899 44.5955 6.95778 39.5268 13.1881 39.5268C19.4183 39.5268 24.4869 44.5955 24.4869 50.8257ZM19.9559 32.1678H16.9531C16.4352 32.1678 16.0155 32.5874 16.0155 33.1054V37.9581C14.1542 37.5496 12.2222 37.5492 10.3599 37.9583V33.1054C10.3599 32.5874 9.94022 32.1678 9.42229 32.1678H6.41947C5.58438 32.1678 5.16546 31.1574 5.75615 30.5669L12.5237 23.7991C12.8899 23.4336 13.4856 23.4336 13.851 23.7985L20.6195 30.5669C21.2102 31.1575 20.792 32.1678 19.9559 32.1678ZM22.4933 25.2979L20.5507 27.2405C20.4281 27.3631 20.2953 27.4321 20.175 27.4705L15.1765 22.472C14.7632 22.0593 14.2522 21.8027 13.7171 21.701L12.4126 18.1182C12.1556 17.4118 12.189 16.6478 12.5061 15.9672L15.0611 10.4886L19.638 8.82281L25.1169 11.3778C25.4192 11.5186 25.6943 11.7144 25.9285 11.9518L24.6793 14.5538C24.5579 14.8066 24.4948 15.0833 24.4945 15.3638L24.4865 24.474C23.7077 24.474 23.0091 24.7821 22.4933 25.2979ZM35.8843 25.2979C34.7846 24.1984 33.0051 24.1982 31.9054 25.2982L29.8527 27.352C29.486 27.7187 28.8926 27.7187 28.5261 27.3519C26.1508 24.9766 26.5118 25.3333 26.3617 25.1978V15.9949H30.2859C30.8038 15.9949 31.2235 15.5753 31.2235 15.0573C31.2235 14.5394 30.8038 14.1197 30.2859 14.1197H26.9413L28.8277 10.3468H40.8465L41.7731 12.1993C41.4034 12.8241 41.0506 13.4652 40.7157 14.1197H34.6615C34.1435 14.1197 33.7239 14.5394 33.7239 15.0573C33.7239 15.5753 34.1435 15.9949 34.6615 15.9949H39.8216C38.3542 19.2998 37.3361 22.8523 36.8829 26.2964L35.8843 25.2979Z" fill="black"/>
<path d="M50.5597 13.7337L55.8667 15.6653C57.3488 16.2044 58.9547 15.4269 59.4814 13.9798C60.0133 12.5186 59.2571 10.897 57.7959 10.3651L52.4888 8.43338C51.0277 7.90157 49.4062 8.6579 48.8743 10.1189C48.3412 11.5838 49.0949 13.2004 50.5597 13.7337ZM50.6363 10.7604C50.8156 10.2676 51.361 10.0183 51.8474 10.1954L57.1545 12.127C57.6442 12.3053 57.8975 12.8485 57.7193 13.3381C57.5404 13.8296 56.9981 14.0814 56.5082 13.903L51.2011 11.9714C50.7112 11.7932 50.4574 11.2523 50.6363 10.7604Z" fill="black"/>
<path d="M43.6448 16.2295C43.113 17.6907 43.8692 19.3121 45.3304 19.844L55.9444 23.7072C56.6521 23.9647 57.4184 23.9314 58.1011 23.6129C59.5136 22.9541 60.1238 21.2779 59.4649 19.8651C59.1465 19.1824 58.5814 18.6645 57.8736 18.407L47.2595 14.5437C45.7988 14.012 44.1765 14.7681 43.6448 16.2295ZM57.7654 20.6577C58.1217 21.4215 57.3699 22.2313 56.5858 21.945L45.9718 18.0818C45.4821 17.9035 45.2289 17.3604 45.4069 16.8707C45.5464 16.4873 45.9097 16.2487 46.2958 16.2487L57.2321 20.169C57.4694 20.2555 57.6587 20.4289 57.7654 20.6577Z" fill="black"/>
<path d="M12.2509 42.3542V43.274C12.0852 43.3078 11.9155 43.3502 11.7424 43.4023C8.89771 44.2592 8.18326 48.1071 10.2275 49.7106C10.735 50.1088 11.3701 50.4722 12.2511 50.8588V56.4487C11.4816 56.4026 10.9723 56.2333 10.119 55.6751C9.68554 55.3917 9.10448 55.5131 8.82108 55.9465C8.53755 56.3798 8.65906 56.9609 9.09248 57.2444C10.3224 58.049 11.1532 58.2735 12.2511 58.3254V59.2969C12.2511 59.8148 12.6707 60.2345 13.1887 60.2345C13.7066 60.2345 14.1263 59.8148 14.1263 59.2969V58.229C18.1824 57.3554 19.2798 51.4238 14.8708 49.8653C14.6261 49.7788 14.376 49.6885 14.1263 49.5947V45.1507C14.7741 45.3249 15.1585 45.6511 15.1931 45.6815C15.574 46.0266 16.1624 46.0006 16.5115 45.6221C16.8627 45.2414 16.8387 44.6483 16.458 44.2972C16.4058 44.2489 15.5425 43.4727 14.1263 43.2349V42.3539C14.1263 41.8359 13.7066 41.4163 13.1887 41.4163C12.6707 41.4163 12.2509 41.8364 12.2509 42.3542ZM14.2456 51.6336C15.9782 52.2459 15.8716 53.7291 15.7976 54.169C15.6573 55.0036 15.089 55.8879 14.1261 56.2696V51.5908C14.1663 51.6051 14.2048 51.6191 14.2456 51.6336ZM11.3846 48.2352C10.5539 47.5838 10.8783 45.6512 12.2509 45.2092V48.7804C11.9228 48.607 11.627 48.4255 11.3846 48.2352Z" fill="black"/>
<path d="M30.9105 36.2691C29.4446 36.2691 28.252 37.4616 28.252 38.9275C28.252 39.4454 28.6716 39.8651 29.1896 39.8651C29.7075 39.8651 30.1272 39.4454 30.1272 38.9275C30.1272 38.4957 30.4786 38.1443 30.9105 38.1443C31.3423 38.1443 31.6937 38.4957 31.6937 38.9275C31.6937 39.4454 32.1134 39.8651 32.6313 39.8651C33.1492 39.8651 33.5689 39.4454 33.5689 38.9275C33.5689 37.4616 32.3764 36.2691 30.9105 36.2691Z" fill="black"/>
<path d="M45.51 38.9275C45.51 38.4957 45.8614 38.1443 46.2933 38.1443C46.7251 38.1443 47.0765 38.4957 47.0765 38.9275C47.0765 39.4454 47.4962 39.8651 48.0141 39.8651C48.532 39.8651 48.9517 39.4454 48.9517 38.9275C48.9517 37.4616 47.7592 36.2691 46.2933 36.2691C44.8274 36.2691 43.6348 37.4616 43.6348 38.9275C43.6348 39.4454 44.0544 39.8651 44.5724 39.8651C45.0903 39.8651 45.51 39.4454 45.51 38.9275Z" fill="black"/>
<path d="M41.1331 41.5549C41.4733 41.1646 41.4327 40.5723 41.0422 40.232C40.6518 39.8917 40.0596 39.9325 39.7194 40.3229C39.1322 40.9968 38.0813 41.0103 37.4824 40.3229C37.142 39.9326 36.5498 39.892 36.1595 40.232C35.7692 40.5723 35.7284 41.1645 36.0686 41.5549C37.409 43.0927 39.7945 43.0904 41.1331 41.5549Z" fill="black"/>
</g>
<defs>
<clipPath id="clip0_276_6277">
<rect width="64" height="64" fill="white"/>
</clipPath>
</defs>
</svg>
