<svg width="64" height="64" viewBox="0 0 64 64" fill="none" xmlns="http://www.w3.org/2000/svg">
<g clip-path="url(#clip0_276_6259)">
<path d="M6.94336 4.93848H38.9746V34.9678H6.94336V4.93848Z" fill="#FFDE7C"/>
<path d="M6.94336 4.93848H11.9482V34.9678H6.94336V4.93848Z" fill="#FFC824"/>
<path d="M25.9629 12.9463L22.96 11.9453L19.957 12.9463V4.93848H25.9629V12.9463Z" fill="#FFBD85"/>
<path d="M10.9473 17.9512H22.959V21.9551H10.9473V17.9512Z" fill="#F0EFEF"/>
<path d="M37.9736 32.9658C35.9717 32.9658 32.9688 34.9678 32.9688 34.9678H27.9639L22.959 30.9639H29.9658V28.9619C29.9658 27.8564 29.0693 26.96 27.9639 26.96H18.9551L14.9512 30.9639H0.9375V37.9707H14.9512L26.9629 39.9727L33.9697 37.9707L39.9756 34.9678C39.9756 34.9678 39.9756 32.9658 37.9736 32.9658Z" fill="#FFE9D6"/>
<path d="M29.9673 28.9619H23.9614L23.9355 30.9639H29.9673V28.9619Z" fill="#FFD3AE"/>
<path d="M39.2202 33.3433L33.9697 35.9688L26.9629 37.9707L14.9512 35.9688H0.9375V37.9707H14.9512L26.9629 39.9727L33.9697 37.9707L39.9756 34.9678C39.9756 34.9678 39.9751 33.9233 39.2202 33.3433Z" fill="#FFD3AE"/>
<path d="M0.9375 39.9727V29.9629H11.9482V39.9727H0.9375Z" fill="#FF8660"/>
<path d="M0.9375 36.9697H11.9482V39.9727H0.9375V36.9697Z" fill="#FF6838"/>
<path d="M45.9824 52.1377H40.9775C40.9775 52.1377 37.9746 50.1357 35.9727 50.1357C33.9707 50.1357 33.9707 52.1377 33.9707 52.1377L39.9766 55.1406L46.4473 56.9893L46.1636 51.9927L45.9824 52.1377Z" fill="#FFD3AE"/>
<path d="M57.9941 49.9824L53.9902 45.9785H44.9814C43.8755 45.9785 42.9795 46.875 42.9795 47.9805V49.9824H48.9854L39.9766 53.9863H34.9717C34.9717 53.9863 31.9688 51.9844 29.9668 51.9844C27.9648 51.9844 27.9648 53.9863 27.9648 53.9863L33.9707 56.9893L40.9775 58.9912L52.9893 56.9893H62.999V49.9824H57.9941Z" fill="#FFE9D6"/>
<path d="M42.9785 47.9805H48.9844V49.9824H42.9785V47.9805Z" fill="#FFD3AE"/>
<path d="M40.9775 56.9893L33.9707 54.9873L28.7197 52.3618C27.9653 52.9419 27.9648 53.9863 27.9648 53.9863L33.9707 56.9893L40.9775 58.9912L52.9893 56.9893H62.999V54.9873H52.9893L40.9775 56.9893Z" fill="#FFD3AE"/>
<path d="M10.9482 17.0127C10.4302 17.0127 10.0098 17.4326 10.0098 17.9512V21.9551C10.0098 22.4736 10.4302 22.8936 10.9482 22.8936H22.96C23.478 22.8936 23.8984 22.4736 23.8984 21.9551V17.9512C23.8984 17.4326 23.478 17.0127 22.96 17.0127H10.9482ZM22.0215 21.0166H11.8867V18.8896H22.0215V21.0166Z" fill="black"/>
<path d="M26.8096 40.8984C26.8608 40.9067 26.9121 40.9111 26.9639 40.9111C27.0508 40.9111 27.1377 40.8989 27.2217 40.875L34.2285 38.873C34.2842 38.8569 34.3384 38.8359 34.3906 38.8101L40.3965 35.8071C40.7144 35.6479 40.915 35.3232 40.915 34.9678C40.915 34.2495 40.625 33.3188 39.9141 32.6987V15.4072C39.9141 14.8887 39.4941 14.4688 38.9756 14.4688C38.4575 14.4688 38.0371 14.8887 38.0371 15.4072V32.0288C38.0161 32.0288 37.9961 32.0273 37.9746 32.0273C36.0322 32.0273 33.5161 33.5093 32.6929 34.0293H28.2939L25.6353 31.9023H29.9668C30.4849 31.9023 30.9053 31.4824 30.9053 30.9639V28.9619C30.9053 27.3403 29.5859 26.0215 27.9648 26.0215H18.9561C18.707 26.0215 18.4683 26.1201 18.2925 26.2964L14.5635 30.0254H12.8877V29.9629C12.8877 29.4443 12.4673 29.0244 11.9492 29.0244H7.88281V5.87695H19.0186V12.9463C19.0186 13.5757 19.6558 14.0356 20.2539 13.8364L22.96 12.9346L25.666 13.8364C26.2642 14.0356 26.9014 13.5757 26.9014 12.9463V5.87695H38.0371V10.9028C38.0371 11.4209 38.457 11.8408 38.9756 11.8408C39.4941 11.8408 39.9141 11.4209 39.9141 10.9028V4.93848C39.9141 4.41992 39.4941 4 38.9756 4H6.94434C6.42627 4 6.00586 4.41992 6.00586 4.93848V29.0244H0.938477C0.419922 29.0244 0 29.4443 0 29.9629C0 30.4814 0.419922 30.9014 0.938477 30.9014H11.0107V39.0342H0.938477C0.419922 39.0342 0 39.4541 0 39.9727C0 40.4912 0.419922 40.9111 0.938477 40.9111H11.9492C12.4673 40.9111 12.8877 40.4912 12.8877 39.9727V38.9092H14.874L26.8096 40.8984ZM25.0244 5.87695V11.6445L23.2568 11.0552C23.0654 10.9912 22.8545 10.9912 22.6631 11.0552L20.8955 11.6445V5.87695H25.0244ZM12.8877 31.9023H14.9521C15.1987 31.9023 15.4404 31.8008 15.6157 31.6274L19.3447 27.8984H27.9648C28.5513 27.8984 29.0283 28.3755 29.0283 28.9619V30.0254H22.96C22.5732 30.0254 22.2207 30.2725 22.083 30.6318C21.9409 31.0034 22.0591 31.4497 22.3735 31.6968L27.3784 35.7007C27.5449 35.8335 27.752 35.9062 27.9648 35.9062H32.9697C33.1548 35.9062 33.3359 35.8516 33.4902 35.7485C34.2598 35.2354 36.5654 33.9043 37.9746 33.9043C38.5283 33.9043 38.7993 34.1572 38.9282 34.4429L33.6289 37.0923L26.9097 39.0122L15.1064 37.0449C15.0972 37.0435 15.0884 37.043 15.0796 37.042C15.0625 37.0396 15.0459 37.0376 15.0293 37.0361C15.0127 37.0347 14.9961 37.0342 14.98 37.0337C14.9707 37.0332 14.9614 37.0322 14.9521 37.0322H12.8877V31.9023Z" fill="black"/>
<path d="M63 55.9883H52.9902C52.9795 55.9883 52.9692 55.9897 52.9585 55.9897C52.9419 55.9902 52.9253 55.9912 52.9087 55.9922C52.8901 55.9941 52.8721 55.9961 52.854 55.9985C52.8442 56 52.835 56.0005 52.8257 56.002L41.0366 57.9668L34.3359 56.0522L29.0967 53.4326C29.231 53.1787 29.4897 52.9854 29.9678 52.9854C31.356 52.9854 33.6509 54.3096 34.4175 54.8193C34.5815 54.9287 34.7749 54.9873 34.9727 54.9873H39.9775C40.1177 54.9873 40.2563 54.958 40.3843 54.9009L49.375 50.9053C49.8101 50.7188 50.064 50.2388 49.9653 49.7744C49.8672 49.311 49.439 48.9722 48.9648 48.9814H43.9814V47.9805C43.9814 47.4287 44.4307 46.9795 44.9824 46.9795H53.5767L57.2871 50.6904C57.4736 50.8755 57.7324 50.9834 57.9951 50.9834H63C63.5527 50.9834 64.001 50.5352 64.001 49.9824C64.001 49.4297 63.5527 48.9814 63 48.9814H58.4097L54.6992 45.271C54.5112 45.083 54.2568 44.9775 53.9912 44.9775H44.9824C43.3267 44.9775 41.9795 46.3247 41.9795 47.9805V49.9824C41.9795 50.5352 42.4277 50.9834 42.9805 50.9834H44.2695L43.9248 51.1367H41.2734C40.4302 50.6055 37.9199 49.1348 35.9736 49.1348C33.9858 49.1348 33.1406 50.5967 32.9946 51.769C32.0273 51.3423 30.9287 50.9834 29.9678 50.9834C27.7646 50.9834 26.9648 52.7793 26.9648 53.9863C26.9648 54.3657 27.1792 54.7119 27.5181 54.8818L33.5239 57.8848C33.5791 57.9126 33.6372 57.9346 33.6968 57.9517L40.7036 59.9536C40.7935 59.9795 40.8857 59.9922 40.9785 59.9922C41.0332 59.9922 41.0884 59.9878 41.1431 59.979L53.0732 57.9902H63C63.5527 57.9902 64.001 57.542 64.001 56.9893C64.001 56.4365 63.5527 55.9883 63 55.9883ZM35.1172 51.5845C35.228 51.3628 35.416 51.1367 35.9736 51.1367C37.231 51.1367 39.2319 52.2227 40.168 52.8066L39.7651 52.9854H37.6392C37.5469 52.8545 37.4224 52.7437 37.269 52.667L35.1143 51.5898C35.1152 51.5879 35.1162 51.5859 35.1172 51.5845Z" fill="black"/>
</g>
<defs>
<clipPath id="clip0_276_6259">
<rect width="64" height="64" fill="white"/>
</clipPath>
</defs>
</svg>
