<svg width="64" height="64" viewBox="0 0 64 64" fill="none" xmlns="http://www.w3.org/2000/svg">
<g clip-path="url(#clip0_5953_1638)">
<path d="M32.332 10.1076C32.332 10.1076 37.4897 -0.577982 49.8081 0.66767C50.0798 0.697884 50.3422 0.784674 50.5784 0.922451C50.8145 1.06023 51.0192 1.24594 51.1793 1.46762C52.5334 3.27173 53.2285 5.48532 53.1489 7.73968C52.9161 11.8565 37.7153 15.0277 37.7153 15.0277L34.4937 14.3877L32.332 10.1076Z" fill="#F6C863"/>
<path d="M45.1839 11.7483C42.0394 12.9237 38.7105 13.5286 35.3535 13.5347C39.8374 9.4818 45.5468 7.04312 51.575 6.60601C52.2854 6.54761 52.551 7.36044 52.0623 7.87957C50.9607 9.04593 48.1607 10.6123 45.1839 11.7483Z" fill="#EAB54E"/>
<path d="M32.3288 10.1076C32.3288 10.1076 27.1712 -0.577982 14.8528 0.66767C14.5811 0.697884 14.3187 0.784674 14.0825 0.922451C13.8463 1.06023 13.6416 1.24594 13.4816 1.46762C12.1275 3.27173 11.4324 5.48532 11.512 7.73968C11.7449 11.8565 26.9456 15.0277 26.9456 15.0277L30.1672 14.3877L32.3288 10.1076Z" fill="#F6C863"/>
<path d="M19.4772 11.7483C22.6217 12.9237 25.9506 13.5286 29.3076 13.5347C26.7999 11.3039 23.9156 9.53671 20.7893 8.31554C18.313 7.39199 15.7205 6.81665 13.0861 6.60601C12.3757 6.54761 12.1101 7.36044 12.5989 7.87957C13.6965 9.04593 16.5044 10.6123 19.4772 11.7483Z" fill="#EAB54E"/>
<path d="M32.0023 17.5396C34.1373 17.5396 35.868 15.8089 35.868 13.674C35.868 11.5391 34.1373 9.80835 32.0023 9.80835C29.8674 9.80835 28.1367 11.5391 28.1367 13.674C28.1367 15.8089 29.8674 17.5396 32.0023 17.5396Z" fill="#EAB54E"/>
<path d="M0.792792 13.6733H63.2071C63.4173 13.6734 63.6189 13.7569 63.7676 13.9056C63.9163 14.0543 63.9998 14.2559 63.9999 14.4661V24.7749C63.9998 24.9851 63.9163 25.1867 63.7676 25.3354C63.6189 25.4841 63.4173 25.5676 63.2071 25.5676H0.792792C0.582542 25.5676 0.380914 25.4841 0.232245 25.3354C0.0835762 25.1867 3.79478e-05 24.9851 0 24.7749L0 14.4661C3.79478e-05 14.2559 0.0835762 14.0543 0.232245 13.9056C0.380914 13.7569 0.582542 13.6734 0.792792 13.6733Z" fill="#EF5261"/>
<path d="M60.8469 23.3867V62.6403C60.8463 62.8503 60.7626 63.0516 60.614 63.2002C60.4655 63.3487 60.2642 63.4324 60.0541 63.4331H3.95099C3.74093 63.4324 3.53965 63.3487 3.39112 63.2002C3.24258 63.0516 3.15884 62.8503 3.1582 62.6403V23.3867H60.8469Z" fill="#EF5261"/>
<path d="M3.1582 25.5676H60.8478V28.3428H3.1582V25.5676Z" fill="#DA364C"/>
<path d="M27.3613 13.6733H36.6421V63.4324H27.3613V13.6733Z" fill="#F6C863"/>
<path d="M27.3594 25.5676H36.645V28.3428H27.3594V25.5676Z" fill="#EAB54E"/>
</g>
<defs>
<clipPath id="clip0_5953_1638">
<rect width="64" height="64" fill="white"/>
</clipPath>
</defs>
</svg>
