<svg width="64" height="64" viewBox="0 0 64 64" fill="none" xmlns="http://www.w3.org/2000/svg">
<g clip-path="url(#clip0_5878_8986)">
<path d="M16.3183 47.6792C29.6983 61.0594 60.8453 37.1011 53.9579 10.0396C26.8964 3.15227 2.93817 34.2992 16.3183 47.6792Z" fill="#76CC5B"/>
<path opacity="0.2" d="M16.3194 43.4357C14.2004 41.3167 13.0189 38.7517 12.637 35.9629C12.0832 40.3691 13.1598 44.5195 16.3194 47.6792C28.754 60.1138 56.5331 40.3005 54.8687 15.7176C53.3477 38.2567 28.0294 55.1458 16.3194 43.4357Z" fill="black"/>
<path d="M24.6981 18.1882C33.0394 11.2864 43.3488 8.6545 53.0805 10.9178C53.8081 14.0423 54.0395 17.2367 53.7686 20.4233C53.7188 21.0071 54.1519 21.5206 54.7357 21.5702C54.7664 21.5729 54.7969 21.574 54.8269 21.574C55.3721 21.574 55.8358 21.1562 55.8828 20.603C56.1917 16.9702 55.8901 13.3281 54.9867 9.77818C54.8908 9.40168 54.5967 9.10759 54.2202 9.01168C43.6449 6.32012 32.3912 9.06878 23.3455 16.5535C22.8941 16.9271 22.8309 17.5957 23.2045 18.0472C23.5779 18.4985 24.2469 18.5616 24.6981 18.1882Z" fill="black"/>
<path d="M53.2001 24.2538C51.2113 33.6515 44.8248 42.4597 36.5331 47.2408C36.0254 47.5335 35.8513 48.1822 36.1439 48.6897C36.3404 49.0305 36.697 49.2209 37.0639 49.2209C37.2437 49.2209 37.4261 49.1753 37.5928 49.0789C46.3903 44.0062 53.1662 34.6621 55.2759 24.6931C55.3971 24.1199 55.0309 23.5568 54.4577 23.4356C53.8848 23.3144 53.3215 23.6807 53.2001 24.2538Z" fill="black"/>
<path d="M9.0609 55.998C9.33231 55.998 9.6039 55.8945 9.81118 55.6874L16.3468 49.1517C18.965 51.4072 22.2466 52.5557 25.8922 52.5557C28.3686 52.5555 31.013 52.0255 33.7306 50.9524C34.2756 50.7372 34.5429 50.1209 34.3277 49.576C34.1125 49.0311 33.4959 48.764 32.9514 48.9789C29.918 50.1769 26.9092 50.6514 24.2509 50.3509C21.8024 50.0742 19.6549 49.1655 17.8515 47.6469L22.6099 42.8886L29.8338 44.4081C29.9075 44.4236 29.9809 44.4309 30.0533 44.4309C30.5445 44.4309 30.9854 44.0879 31.0905 43.5882C31.2112 43.0149 30.8441 42.4522 30.2707 42.3317L24.4013 41.0971L29.7728 35.7257L36.9968 37.2452C37.0705 37.2605 37.1439 37.268 37.2163 37.268C37.7075 37.268 38.1483 36.925 38.2535 36.4253C38.3741 35.852 38.0071 35.2894 37.4336 35.1688L31.5643 33.9342L36.9357 28.5628L44.1597 30.0824C44.2333 30.0977 44.3067 30.1052 44.3792 30.1052C44.8704 30.1052 45.3112 29.7622 45.4164 29.2625C45.537 28.6891 45.17 28.1266 44.5965 28.006L38.7272 26.7714L44.4744 21.0242C44.8887 20.6099 44.8887 19.9383 44.4744 19.524C44.0599 19.1099 43.3883 19.1096 42.974 19.524L37.227 25.271L35.9924 19.4018C35.8718 18.8283 35.3086 18.4614 34.7358 18.582C34.1623 18.7027 33.7954 19.2653 33.9159 19.8386L35.4355 27.0625L30.0641 32.4339L28.8297 26.5647C28.7089 25.9912 28.1461 25.6243 27.5731 25.7448C26.9996 25.8655 26.6327 26.4281 26.7532 27.0014L28.2727 34.2254L22.9014 39.5967L21.6668 33.7275C21.5462 33.154 20.9835 32.7871 20.4102 32.9078C19.8367 33.0285 19.4698 33.5911 19.5904 34.1643L21.11 41.3883L16.3516 46.1467C13.2065 42.4161 13.2638 37.9301 13.9141 34.7265C14.8741 29.9957 17.6963 25.0485 21.8609 20.796C22.2709 20.3774 22.2639 19.7057 21.8453 19.2959C21.4264 18.8858 20.7549 18.893 20.3451 19.3115C15.8973 23.8528 12.8748 29.1775 11.8344 34.3045C10.7846 39.4777 11.855 44.1727 14.8476 47.6504L8.31071 54.187C7.89643 54.6013 7.89643 55.273 8.31071 55.6872C8.51781 55.8945 8.78931 55.998 9.0609 55.998Z" fill="black"/>
</g>
<defs>
<clipPath id="clip0_5878_8986">
<rect width="48" height="48" fill="white" transform="translate(8 8)"/>
</clipPath>
</defs>
</svg>
