<svg width="64" height="64" viewBox="0 0 64 64" fill="none" xmlns="http://www.w3.org/2000/svg">
<g clip-path="url(#clip0_5953_1624)">
<path d="M54.5508 20.5984H41.3359V44.5498H62.9875V33.7693L60.4623 25.042C59.7011 22.4102 57.2906 20.5984 54.5508 20.5984Z" fill="#FF7058"/>
<path d="M59.8264 33.6587L57.576 25.8794C57.188 24.5421 55.9442 23.6062 54.5509 23.6062H44.3438V33.6587H59.8264Z" fill="#84DBFF"/>
<path d="M59.8286 33.6546H44.3379V23.6021L59.8286 33.6546Z" fill="#CDD6E0"/>
<path d="M59.8264 33.6587L57.576 25.8794C57.188 24.5421 55.9442 23.6062 54.5509 23.6062H44.3438L59.8264 33.6587Z" fill="#F2F2F2"/>
<path d="M3.99966 8.57397H37.3355C39.5433 8.57397 41.3352 10.3644 41.3352 12.5736V44.5483H0V12.5736C0 10.3646 1.79047 8.57397 3.99966 8.57397Z" fill="#FFD15C"/>
<path d="M27.0912 8.58081V19.1492L25.5446 17.6027L23.9235 19.2239L22.3036 17.6027L20.6838 19.2239L19.0612 17.6027L17.4201 19.2239L15.8014 17.6027L14.2363 19.1679V8.58081H27.0912Z" fill="#F2F2F2"/>
<path d="M64.0005 44.547V49.0666H0.00585938V44.547H6.6853C8.24517 41.7472 11.2449 39.854 14.6846 39.854C18.111 39.854 21.1107 41.7472 22.684 44.547H44.1755C45.7354 41.7472 48.7205 39.854 52.1602 39.854C55.5999 39.854 58.5863 41.7472 60.1596 44.547H64.0005Z" fill="#334A5E"/>
<path d="M58.5477 49.0386C58.5477 52.5663 55.6879 55.4261 52.1602 55.4261C48.6325 55.4261 45.7754 52.5663 45.7754 49.0386C45.7754 45.5109 48.6338 42.6511 52.1602 42.6511C55.6893 42.6511 58.5477 45.5109 58.5477 49.0386Z" fill="#40596B"/>
<path d="M54.7267 49.0386C54.7267 50.4558 53.5774 51.6037 52.1615 51.6037C50.7443 51.6037 49.5938 50.4558 49.5938 49.0386C49.5938 47.6213 50.743 46.4734 52.1615 46.4734C53.5774 46.4721 54.7267 47.6214 54.7267 49.0386Z" fill="#ACB3BA"/>
<path d="M21.0659 49.0386C21.0659 52.5663 18.2048 55.4261 14.6785 55.4261C11.1508 55.4261 8.29102 52.5663 8.29102 49.0386C8.29102 45.5109 11.1508 42.6511 14.6785 42.6511C18.2048 42.6511 21.0659 45.5109 21.0659 49.0386Z" fill="#40596B"/>
<path d="M17.2449 49.0385C17.2449 50.4558 16.0969 51.6037 14.6797 51.6037C13.2624 51.6037 12.1133 50.4558 12.1133 49.0385C12.1133 47.6213 13.2626 46.4734 14.6797 46.4734C16.0968 46.4734 17.2449 47.6214 17.2449 49.0385Z" fill="#ACB3BA"/>
</g>
<defs>
<clipPath id="clip0_5953_1624">
<rect width="64" height="64" fill="white"/>
</clipPath>
</defs>
</svg>
