<svg width="132" height="132" viewBox="0 0 132 132" fill="none" xmlns="http://www.w3.org/2000/svg">
<g clip-path="url(#clip0_129_8809)">
<path d="M103.736 48.1336L68.006 83.8665L66.0002 85.8722L55.2442 96.6256L42.4825 83.8665L28.2642 69.6455L41.0259 56.8838L55.2442 71.1047L66.0002 60.3488L90.9745 35.3745L103.736 48.1336Z" fill="#5EAC24"/>
<path d="M66 0C29.5505 0 0 29.5505 0 66C0 102.45 29.5505 132 66 132C102.45 132 132 102.45 132 66C132 29.5505 102.45 0 66 0ZM66 127.377C32.157 127.377 4.62258 99.843 4.62258 66C4.62258 32.157 32.157 4.62258 66 4.62258C99.843 4.62258 127.377 32.157 127.377 66C127.377 99.843 99.843 127.377 66 127.377Z" fill="#5EAC24"/>
</g>
<defs>
<clipPath id="clip0_129_8809">
<rect width="132" height="132" fill="white"/>
</clipPath>
</defs>
</svg>
