<svg width="64" height="64" viewBox="0 0 64 64" fill="none" xmlns="http://www.w3.org/2000/svg">
<g clip-path="url(#clip0_276_6252)">
<path d="M11.0924 52.9056C28.9324 70.7459 70.4617 38.8014 61.2785 2.71948C25.1965 -6.46366 -6.7478 35.0655 11.0924 52.9056Z" fill="#76CC5B"/>
<path opacity="0.2" d="M11.0912 47.2476C8.26596 44.4224 6.69059 41.0023 6.18133 37.284C5.44296 43.1589 6.87846 48.6927 11.0912 52.9056C27.6708 69.4852 64.7094 43.0674 62.4903 10.2902C60.4623 40.3423 26.7045 62.8611 11.0912 47.2476Z" fill="black"/>
<path d="M22.2634 13.5843C33.3852 4.38186 47.1311 0.872599 60.1066 3.89036C61.0768 8.05636 61.3854 12.3155 61.0242 16.5644C60.9578 17.3428 61.5353 18.0274 62.3137 18.0935C62.3545 18.0971 62.3952 18.0986 62.4353 18.0986C63.1622 18.0986 63.7804 17.5415 63.843 16.8039C64.2549 11.9602 63.8528 7.10411 62.6483 2.37085C62.5204 1.86885 62.1283 1.47673 61.6263 1.34885C47.5259 -2.23991 32.521 1.42498 20.4601 11.4046C19.8582 11.9027 19.7739 12.7942 20.2721 13.3962C20.7699 13.998 21.6618 14.0821 22.2634 13.5843Z" fill="black"/>
<path d="M60.2668 21.6718C57.615 34.202 49.0998 45.9462 38.0441 52.3211C37.3673 52.7113 37.1351 53.5762 37.5253 54.253C37.7873 54.7073 38.2626 54.9612 38.7519 54.9612C38.9916 54.9612 39.2348 54.9003 39.457 54.7718C51.187 48.0082 60.2215 35.5494 63.0346 22.2574C63.1962 21.4931 62.7079 20.7424 61.9436 20.5808C61.1797 20.4191 60.4287 20.9076 60.2668 21.6718Z" fill="black"/>
<path d="M1.41453 63.9974C1.77641 63.9974 2.13854 63.8594 2.41491 63.5833L11.1291 54.869C14.6201 57.8762 18.9954 59.4076 23.8562 59.4076C27.1581 59.4074 30.684 58.7007 34.3075 57.2699C35.0341 56.983 35.3905 56.1612 35.1036 55.4347C34.8167 54.7081 33.9946 54.352 33.2685 54.6386C29.224 56.2359 25.2122 56.8685 21.6678 56.4679C18.4032 56.099 15.5398 54.8874 13.1353 52.8626L19.4798 46.5181L29.1117 48.5441C29.21 48.5648 29.3078 48.5746 29.4045 48.5746C30.0593 48.5746 30.6472 48.1172 30.7873 47.451C30.9482 46.6866 30.4588 45.9363 29.6942 45.7756L21.8685 44.1295L29.0303 36.9676L38.6624 38.9936C38.7606 39.0141 38.8585 39.0241 38.9551 39.0241C39.61 39.0241 40.1977 38.5667 40.338 37.9005C40.4989 37.1361 40.0095 36.3859 39.2449 36.2251L31.4191 34.5789L38.581 27.4171L48.2129 29.4432C48.3111 29.4637 48.409 29.4737 48.5056 29.4737C49.1605 29.4737 49.7483 29.0163 49.8885 28.3501C50.0494 27.5854 49.56 26.8354 48.7954 26.6747L40.9696 25.0286L48.6325 17.3657C49.1849 16.8133 49.1849 15.9178 48.6325 15.3654C48.0799 14.8132 47.1844 14.8128 46.632 15.3654L38.9694 23.028L37.3232 15.2024C37.1624 14.4378 36.4115 13.9485 35.6477 14.1094C34.8831 14.2703 34.3939 15.0204 34.5546 15.7848L36.5807 25.4167L29.4188 32.5786L27.773 24.7529C27.6118 23.9883 26.8615 23.499 26.0975 23.6598C25.3328 23.8207 24.8436 24.5708 25.0043 25.3352L27.0303 34.9672L19.8686 42.129L18.2224 34.3033C18.0616 33.5387 17.3113 33.0494 16.5469 33.2104C15.7823 33.3713 15.2931 34.1214 15.4538 34.8858L17.4799 44.5177L11.1354 50.8622C6.94205 45.8881 7.01842 39.9068 7.88542 35.6353C9.16543 29.3276 12.9284 22.7313 18.4812 17.0614C19.0278 16.5033 19.0186 15.6077 18.4604 15.0612C17.9018 14.5144 17.0066 14.524 16.4602 15.082C10.5297 21.137 6.49967 28.2367 5.11254 35.0727C3.71279 41.9703 5.14004 48.2302 9.13017 52.8672L0.414282 61.5828C-0.138094 62.1351 -0.138094 63.0306 0.414282 63.583C0.690408 63.8594 1.05241 63.9974 1.41453 63.9974Z" fill="black"/>
</g>
<defs>
<clipPath id="clip0_276_6252">
<rect width="64" height="64" fill="white"/>
</clipPath>
</defs>
</svg>
