<svg width="157" height="44" viewBox="0 0 157 44" fill="none" xmlns="http://www.w3.org/2000/svg">
<path d="M16.5035 39.0626C14.7588 39.0626 13.2811 38.5816 12.0705 37.6198C10.8955 36.6223 10.0054 35.1438 9.40005 33.1845L0 2.56494H5.55458L14.4205 31.7951C14.6342 32.4364 14.9012 32.9173 15.2217 33.2379C15.5421 33.5585 15.9694 33.7189 16.5035 33.7189C17.0376 33.7189 17.4649 33.5585 17.7853 33.2379C18.1414 32.9173 18.4084 32.4364 18.5865 31.7951L27.3456 2.56494H32.9536L23.5535 33.1845C22.9482 35.1438 22.0403 36.6223 20.8297 37.6198C19.6547 38.5816 18.2126 39.0626 16.5035 39.0626Z" fill="white"/>
<path d="M37.2217 12.1837H42.5093V38.3679H37.2217V12.1837ZM39.8388 7.00028C39.2335 7.00028 38.6638 6.85778 38.1297 6.57278C37.5956 6.25216 37.1683 5.82466 36.8479 5.29029C36.5274 4.75592 36.3672 4.16811 36.3672 3.52686C36.3672 2.88561 36.5274 2.2978 36.8479 1.76343C37.1683 1.22906 37.5956 0.801559 38.1297 0.480935C38.6638 0.160312 39.2335 0 39.8388 0C40.4797 0 41.0494 0.160312 41.5479 0.480935C42.082 0.801559 42.4915 1.22906 42.7763 1.76343C43.0968 2.2978 43.257 2.88561 43.257 3.52686C43.257 4.16811 43.0968 4.75592 42.7763 5.29029C42.4915 5.82466 42.082 6.25216 41.5479 6.57278C41.0494 6.85778 40.4797 7.00028 39.8388 7.00028Z" fill="white"/>
<path d="M60.3281 16.619C58.619 16.619 57.1947 17.0465 56.0553 17.9015C54.9159 18.7565 54.0614 19.8609 53.4917 21.2146C52.922 22.5684 52.6371 24.0646 52.6371 25.7034V38.368H47.3496V25.169C47.3496 22.604 47.8481 20.3062 48.8451 18.2756C49.842 16.2093 51.3019 14.5706 53.2246 13.3593C55.1474 12.1481 57.5152 11.5425 60.3281 11.5425C63.2122 11.5425 65.6156 12.1481 67.5384 13.3593C69.4967 14.5706 70.9744 16.2093 71.9713 18.2756C73.0039 20.3062 73.5202 22.5862 73.5202 25.1155V38.368H68.2327V25.7568C68.2327 24.118 67.93 22.6218 67.3247 21.2681C66.755 19.8787 65.8827 18.7565 64.7077 17.9015C63.5683 17.0465 62.1084 16.619 60.3281 16.619Z" fill="white"/>
<path d="M97.49 37.3231C95.1793 38.59 92.8205 39.213 90.4136 39.1921C87.9895 39.14 85.7504 38.499 83.6963 37.2691C81.6251 36.0079 79.9478 34.2058 78.6645 31.8627C77.4667 29.6758 76.8556 27.411 76.8311 25.0682C76.7895 22.6943 77.3521 20.4968 78.5189 18.4759C79.6687 16.4237 81.3989 14.7642 83.7095 13.4973C86.0202 12.2304 88.2853 11.6587 90.5049 11.7823C92.7386 11.8576 94.7874 12.5217 96.6511 13.7747C98.529 14.9794 100.05 16.644 101.213 18.7684L102.24 20.6429L82.9896 31.1974L82.8061 28.8607C83.6022 30.5366 84.6632 31.8438 85.9893 32.7823C87.3154 33.7208 88.7856 34.2553 90.3999 34.3858C91.9971 34.485 93.592 34.0981 95.1845 33.2249C96.6208 32.4374 97.7456 31.4145 98.5587 30.1562C99.403 28.8808 99.8264 27.43 99.8289 25.8037L104.39 25.6796C104.468 28.1957 103.9 30.4571 102.685 32.4639C101.47 34.4707 99.7382 36.0905 97.49 37.3231ZM82.4242 27.6076L95.9603 20.186C95.2306 19.0019 94.3124 18.1038 93.2057 17.4918C92.1304 16.8627 90.9562 16.5722 89.6832 16.6202C88.4414 16.651 87.196 17.0089 85.947 17.6937C84.6668 18.3956 83.6725 19.286 82.9642 20.365C82.2871 21.4268 81.9086 22.589 81.8287 23.8515C81.7799 25.0969 81.9785 26.349 82.4242 27.6076Z" fill="white"/>
<path d="M120.301 39.0624C118.165 39.0624 116.349 38.6349 114.853 37.7799C113.358 36.9249 112.218 35.7493 111.435 34.2531C110.687 32.7212 110.314 30.9578 110.314 28.9628V5.39697H115.601V28.8025C115.601 30.5125 116.064 31.8484 116.99 32.8103C117.951 33.7721 119.215 34.2531 120.782 34.2531C121.636 34.2531 122.491 34.1106 123.345 33.8256C124.236 33.5406 125.001 33.1665 125.642 32.7034V37.5662C124.965 37.9937 124.147 38.3499 123.185 38.6349C122.224 38.9199 121.262 39.0624 120.301 39.0624ZM125.642 16.7791H105.133V12.1835H125.642V16.7791Z" fill="white"/>
<path d="M142.26 39.0092C139.732 39.0092 137.471 38.3858 135.477 37.1389C133.518 35.8921 131.97 34.2355 130.83 32.1693C129.691 30.0674 129.121 27.7518 129.121 25.2224C129.121 22.7287 129.726 20.4487 130.937 18.3824C132.183 16.2806 133.857 14.624 135.957 13.4128C138.058 12.1659 140.426 11.5425 143.061 11.5425C145.696 11.5425 148.064 12.1481 150.164 13.3593C152.265 14.535 153.921 16.1559 155.131 18.2221C156.378 20.2884 157.001 22.6218 157.001 25.2224V38.368H151.98V28.589L153.796 27.1996C153.796 29.4083 153.298 31.4033 152.301 33.1846C151.339 34.9658 149.986 36.3908 148.242 37.4595C146.533 38.4927 144.539 39.0092 142.26 39.0092ZM143.061 33.9861C144.699 33.9861 146.176 33.5943 147.494 32.8105C148.811 32.0268 149.844 30.9758 150.592 29.6577C151.339 28.304 151.713 26.8433 151.713 25.2759C151.713 23.6727 151.339 22.2121 150.592 20.894C149.844 19.5759 148.811 18.5249 147.494 17.7412C146.176 16.9218 144.699 16.5121 143.061 16.5121C141.423 16.5121 139.945 16.9218 138.628 17.7412C137.346 18.5249 136.314 19.5759 135.53 20.894C134.782 22.2121 134.409 23.6727 134.409 25.2759C134.409 26.8433 134.782 28.304 135.53 29.6577C136.314 30.9758 137.346 32.0268 138.628 32.8105C139.945 33.5943 141.423 33.9861 143.061 33.9861Z" fill="white"/>
</svg>
