<svg width="130" height="33" viewBox="0 0 130 33" fill="none" xmlns="http://www.w3.org/2000/svg">
<path d="M27.6652 3.97037L17.2806 32.1368H10.3846L0 3.97037H6.08472L13.8732 26.3663L21.621 3.97037H27.6652Z" fill="#060606"/>
<path d="M33.9502 7.11791C32.9496 7.11791 32.1113 6.80853 31.4352 6.18979C30.7861 5.54414 30.4616 4.75052 30.4616 3.80895C30.4616 2.86738 30.7861 2.08722 31.4352 1.46847C32.1113 0.822825 32.9496 0.5 33.9502 0.5C34.9508 0.5 35.7756 0.822825 36.4246 1.46847C37.1007 2.08722 37.4388 2.86738 37.4388 3.80895C37.4388 4.75052 37.1007 5.54414 36.4246 6.18979C35.7756 6.80853 34.9508 7.11791 33.9502 7.11791ZM36.7492 9.78121V32.1368H31.0701V9.78121H36.7492Z" fill="#060606"/>
<path d="M54.8135 9.45839C57.4908 9.45839 59.6542 10.3058 61.3038 12.0006C62.9535 13.6686 63.7783 16.009 63.7783 19.0221V32.1368H58.0992V19.7888C58.0992 18.0132 57.653 16.6547 56.7606 15.7131C55.8682 14.7446 54.6512 14.2604 53.1098 14.2604C51.5413 14.2604 50.2973 14.7446 49.3778 15.7131C48.4854 16.6547 48.0392 18.0132 48.0392 19.7888V32.1368H42.3601V9.78121H48.0392V12.5656C48.7964 11.5971 49.7564 10.8438 50.9193 10.3058C52.1092 9.74086 53.4072 9.45839 54.8135 9.45839Z" fill="#060606"/>
<path d="M67.7185 20.959C67.7185 18.6454 68.1917 16.6278 69.1382 14.9061C70.0848 13.1574 71.3963 11.8123 73.073 10.8707C74.7497 9.90227 76.6698 9.41803 78.8332 9.41803C81.6187 9.41803 83.9173 10.1175 85.7292 11.5164C87.5682 12.8884 88.7986 14.8253 89.4206 17.3272H83.2954C82.9708 16.3588 82.4164 15.6055 81.6322 15.0675C80.875 14.5025 79.9285 14.22 78.7927 14.22C77.1701 14.22 75.8855 14.8119 74.939 15.9956C73.9925 17.1524 73.5192 18.8069 73.5192 20.959C73.5192 23.0843 73.9925 24.7388 74.939 25.9224C75.8855 27.0792 77.1701 27.6576 78.7927 27.6576C81.0913 27.6576 82.5922 26.6354 83.2954 24.5908H89.4206C88.7986 27.012 87.5682 28.9355 85.7292 30.3613C83.8903 31.7871 81.5916 32.5 78.8332 32.5C76.6698 32.5 74.7497 32.0292 73.073 31.0876C71.3963 30.1192 70.0848 28.7741 69.1382 27.0523C68.1917 25.3037 67.7185 23.2726 67.7185 20.959Z" fill="#060606"/>
<path d="M114.472 20.4748C114.472 21.2818 114.418 22.0082 114.31 22.6538H97.8809C98.0161 24.268 98.5841 25.5324 99.5846 26.447C100.585 27.3617 101.816 27.819 103.276 27.819C105.385 27.819 106.886 26.9178 107.779 25.1154H113.904C113.255 27.2675 112.011 29.0431 110.172 30.442C108.333 31.814 106.075 32.5 103.398 32.5C101.234 32.5 99.2872 32.0292 97.5564 31.0876C95.8527 30.1192 94.514 28.7606 93.5405 27.012C92.594 25.2633 92.1207 23.2457 92.1207 20.959C92.1207 18.6454 92.594 16.6143 93.5405 14.8657C94.487 13.1171 95.8121 11.772 97.5158 10.8304C99.2196 9.88882 101.18 9.41803 103.398 9.41803C105.534 9.41803 107.441 9.87537 109.117 10.79C110.821 11.7047 112.133 13.0095 113.052 14.7043C113.999 16.3722 114.472 18.2957 114.472 20.4748ZM108.59 18.8607C108.563 17.4079 108.036 16.2512 107.008 15.3903C105.98 14.5025 104.723 14.0586 103.235 14.0586C101.829 14.0586 100.639 14.4891 99.6658 15.3499C98.7193 16.1839 98.1378 17.3541 97.9215 18.8607H108.59Z" fill="#060606"/>
<path d="M130 26.4622C130 29.5962 127.446 32.1368 124.296 32.1368C121.145 32.1368 118.591 29.5962 118.591 26.4622C118.591 23.3281 121.145 20.7875 124.296 20.7875C127.446 20.7875 130 23.3281 130 26.4622Z" fill="#46BA4C"/>
</svg>
